<svg width="134" height="42" viewBox="0 0 134 42" fill="none" xmlns="http://www.w3.org/2000/svg">
<path d="M33.6608 10.5055V28.2055H29.9288V19.7095L31.6088 20.8375H21.8408L23.5208 19.7575V28.2055H19.7888V10.5055H23.5208V19.0615L21.8408 17.9455H31.6088L29.9288 19.0615V10.5055H33.6608ZM36.4375 28.2055V15.4615H40.1215V28.2055H36.4375ZM38.2735 13.3855C37.6975 13.3855 37.1935 13.2335 36.7615 12.9295C36.3375 12.6255 36.1255 12.1975 36.1255 11.6455C36.1255 11.0855 36.3375 10.6535 36.7615 10.3495C37.1935 10.0455 37.6975 9.89347 38.2735 9.89347C38.8575 9.89347 39.3615 10.0455 39.7855 10.3495C40.2175 10.6535 40.4335 11.0855 40.4335 11.6455C40.4335 12.2055 40.2175 12.6375 39.7855 12.9415C39.3615 13.2375 38.8575 13.3855 38.2735 13.3855ZM43.6067 32.0815L43.1027 31.1935C43.5027 31.0095 43.8867 30.7455 44.2547 30.4015C44.6227 30.0575 44.9227 29.6975 45.1547 29.3215C45.3867 28.9535 45.5027 28.6295 45.5027 28.3495C45.5027 28.2215 45.4827 28.1015 45.4427 27.9895C45.4107 27.8695 45.3667 27.7735 45.3107 27.7015H46.1747C46.0787 27.9255 45.9107 28.1255 45.6707 28.3015C45.4307 28.4775 45.0987 28.5655 44.6747 28.5655C44.1867 28.5655 43.7467 28.4015 43.3547 28.0735C42.9707 27.7375 42.7787 27.2615 42.7787 26.6455C42.7787 26.0535 42.9787 25.5695 43.3787 25.1935C43.7787 24.8175 44.2867 24.6295 44.9027 24.6295C45.5907 24.6295 46.1427 24.8695 46.5587 25.3495C46.9747 25.8215 47.1827 26.4175 47.1827 27.1375C47.1827 27.8815 47.0067 28.5775 46.6547 29.2255C46.3107 29.8735 45.8667 30.4415 45.3227 30.9295C44.7787 31.4255 44.2067 31.8095 43.6067 32.0815ZM61.3238 28.4935C59.8758 28.4935 58.7158 28.2415 57.8438 27.7375C56.9798 27.2255 56.3518 26.5135 55.9598 25.6015C55.5758 24.6895 55.3838 23.6375 55.3838 22.4455C55.3838 22.3015 55.3838 22.1615 55.3838 22.0255C55.3838 21.8895 55.3838 21.7535 55.3838 21.6175H59.0798C59.0798 21.6815 59.0798 21.7575 59.0798 21.8455C59.0798 21.9335 59.0798 22.0215 59.0798 22.1095C59.0798 22.6935 59.1398 23.2455 59.2598 23.7655C59.3878 24.2855 59.6158 24.7055 59.9438 25.0255C60.2718 25.3455 60.7318 25.5055 61.3238 25.5055C61.9318 25.5055 62.3918 25.3415 62.7038 25.0135C63.0158 24.6855 63.2278 24.2455 63.3398 23.6935C63.4518 23.1415 63.5078 22.5295 63.5078 21.8575V10.5055H67.2278V22.3855C67.2278 23.2175 67.1318 24.0015 66.9398 24.7375C66.7558 25.4735 66.4398 26.1255 65.9918 26.6935C65.5518 27.2535 64.9518 27.6935 64.1918 28.0135C63.4318 28.3335 62.4758 28.4935 61.3238 28.4935ZM74.464 28.4695C73.536 28.4695 72.708 28.3215 71.98 28.0255C71.26 27.7295 70.696 27.3015 70.288 26.7415C69.88 26.1815 69.676 25.5015 69.676 24.7015C69.676 23.7975 69.924 23.0615 70.42 22.4935C70.916 21.9255 71.572 21.4935 72.388 21.1975C73.212 20.8935 74.104 20.6935 75.064 20.5975C76.464 20.4615 77.428 20.3375 77.956 20.2255C78.492 20.1135 78.76 19.9175 78.76 19.6375C78.76 19.6295 78.76 19.6215 78.76 19.6135C78.76 19.1415 78.532 18.7695 78.076 18.4975C77.628 18.2255 77 18.0895 76.192 18.0895C75.336 18.0895 74.68 18.2455 74.224 18.5575C73.776 18.8615 73.552 19.3295 73.552 19.9615H69.892C69.892 18.9375 70.168 18.0735 70.72 17.3695C71.28 16.6655 72.036 16.1335 72.988 15.7735C73.94 15.4055 75.016 15.2215 76.216 15.2215C77.336 15.2215 78.372 15.3935 79.324 15.7375C80.276 16.0735 81.04 16.5815 81.616 17.2615C82.2 17.9415 82.492 18.8055 82.492 19.8535C82.492 20.0215 82.492 20.1895 82.492 20.3575C82.492 20.5175 82.492 20.6815 82.492 20.8495V25.3615C82.492 25.6895 82.5 26.0055 82.516 26.3095C82.54 26.6055 82.588 26.8775 82.66 27.1255C82.74 27.4055 82.84 27.6375 82.96 27.8215C83.08 28.0055 83.18 28.1335 83.26 28.2055H79.6C79.544 28.1495 79.456 28.0335 79.336 27.8575C79.224 27.6815 79.128 27.4775 79.048 27.2455C78.952 26.9655 78.88 26.6855 78.832 26.4055C78.792 26.1175 78.772 25.7815 78.772 25.3975L79.54 25.9255C79.316 26.4535 78.952 26.9095 78.448 27.2935C77.952 27.6695 77.36 27.9615 76.672 28.1695C75.992 28.3695 75.256 28.4695 74.464 28.4695ZM75.46 25.6855C76.044 25.6855 76.588 25.5815 77.092 25.3735C77.604 25.1575 78.02 24.8215 78.34 24.3655C78.66 23.9095 78.82 23.3135 78.82 22.5775V21.2935L79.744 22.1935C79.216 22.3855 78.604 22.5455 77.908 22.6735C77.22 22.7935 76.532 22.8895 75.844 22.9615C75.028 23.0415 74.416 23.1815 74.008 23.3815C73.608 23.5735 73.408 23.9015 73.408 24.3655C73.408 24.8055 73.58 25.1375 73.924 25.3615C74.268 25.5775 74.78 25.6855 75.46 25.6855ZM91.6343 28.4935C90.2343 28.4935 89.0063 28.2135 87.9503 27.6535C86.8943 27.0855 86.0743 26.2975 85.4903 25.2895C84.9143 24.2815 84.6263 23.1175 84.6263 21.7975C84.6263 20.4615 84.9143 19.3055 85.4903 18.3295C86.0743 17.3455 86.8943 16.5815 87.9503 16.0375C89.0063 15.4935 90.2343 15.2215 91.6343 15.2215C92.6823 15.2215 93.6103 15.3775 94.4183 15.6895C95.2263 15.9935 95.9023 16.3975 96.4463 16.9015C96.9903 17.4055 97.4023 17.9575 97.6823 18.5575C97.9623 19.1575 98.1023 19.7535 98.1023 20.3455C98.1023 20.3535 98.1023 20.3695 98.1023 20.3935C98.1023 20.4095 98.1023 20.4255 98.1023 20.4415H94.4183C94.4183 20.3935 94.4143 20.3495 94.4063 20.3095C94.4063 20.2615 94.3983 20.2135 94.3823 20.1655C94.3183 19.8295 94.1783 19.5135 93.9623 19.2175C93.7463 18.9215 93.4423 18.6815 93.0503 18.4975C92.6663 18.3055 92.1863 18.2095 91.6103 18.2095C90.9943 18.2095 90.4423 18.3455 89.9543 18.6175C89.4743 18.8895 89.0943 19.2935 88.8143 19.8295C88.5343 20.3575 88.3943 21.0135 88.3943 21.7975C88.3943 22.5655 88.5343 23.2295 88.8143 23.7895C89.0943 24.3415 89.4743 24.7655 89.9543 25.0615C90.4423 25.3575 90.9943 25.5055 91.6103 25.5055C92.2423 25.5055 92.7583 25.4095 93.1583 25.2175C93.5583 25.0175 93.8583 24.7535 94.0583 24.4255C94.2583 24.0895 94.3783 23.7215 94.4183 23.3215H98.1023C98.1023 23.9135 97.9623 24.5175 97.6823 25.1335C97.4103 25.7415 97.0023 26.2975 96.4583 26.8015C95.9223 27.3055 95.2503 27.7135 94.4423 28.0255C93.6343 28.3375 92.6983 28.4935 91.6343 28.4935ZM100.425 28.2055V9.44947H103.953V20.1895L103.221 19.8055L108.081 15.4615H112.641L106.329 21.1015L107.121 19.6855L112.533 28.2055H108.621L104.685 21.6415L105.633 21.7135L103.569 23.5855L103.953 21.9895V28.2055H100.425ZM117.808 10.5295L117.064 23.2495H114.832L114.088 10.5295H117.808ZM115.972 28.5655C115.42 28.5655 114.952 28.3735 114.568 27.9895C114.184 27.6055 113.992 27.1375 113.992 26.5855C113.992 26.0415 114.184 25.5775 114.568 25.1935C114.952 24.8095 115.42 24.6175 115.972 24.6175C116.516 24.6175 116.98 24.8095 117.364 25.1935C117.748 25.5775 117.94 26.0415 117.94 26.5855C117.94 27.1375 117.748 27.6055 117.364 27.9895C116.98 28.3735 116.516 28.5655 115.972 28.5655Z" fill="black"/>
<path d="M133.5 21C133.5 23.667 131.775 26.2992 128.437 28.7724C125.109 31.2386 120.262 33.4805 114.227 35.3721C102.162 39.1534 85.4652 41.5 67 41.5C48.5348 41.5 31.8375 39.1534 19.7734 35.3721C13.7384 33.4805 8.89083 31.2386 5.56288 28.7724C2.22537 26.2992 0.5 23.667 0.5 21C0.5 18.333 2.22537 15.7008 5.56288 13.2276C8.89083 10.7614 13.7384 8.51945 19.7734 6.62787C31.8375 2.84657 48.5348 0.5 67 0.5C85.4652 0.5 102.162 2.84657 114.227 6.62787C120.262 8.51945 125.109 10.7614 128.437 13.2276C131.775 15.7008 133.5 18.333 133.5 21Z" stroke="black"/>
</svg>
